<?xml version="1.0" encoding="UTF-8"?>
<svg id="_레이어_2" data-name="레이어 2" xmlns="http://www.w3.org/2000/svg" viewBox="0 0 108.19 79.68">
  <defs>
    <style>
      .cls-1 {
        fill: #fff;
        stroke: #61bbff;
        stroke-miterlimit: 10;
        stroke-width: 2px;
      }
    </style>
  </defs>
  <g id="_레이어_1-2" data-name="레이어 1">
    <path class="cls-1" d="M101.81,5.69l-2.67-3.34-7.33-1.34-6,.66-3.34,2-6.67,2.67s-1.34-1.34-2.67.66c-1.34,2-3.33,5.33-6.67,7.33-3.33,2-1.33,4-7.33,4.67l-6,.67s-2.67,2.67-4.67,4.67-5.33,6-5.33,6c0,0-1.33.66-5.33,1.34-4,.66-5.33,0-8.01,1.34-2.67,1.34-8.67,2.67-8.67,2.67,0,0-3.33,2-5.33,5.33-2,3.33,2,.66-2,3.33-4,2.67-7.33.67-8.67,2.67-1.33,2,0-1.33-1.33,2-1.34,3.33,2,4,2,6s.66,5.33.66,5.33c0,0-1.34,3.33-2.67,6-.36.71-1.16,2.21-2.12,4h18.56l7.11-1.78,5.33-2.67.89,9.78,6.22.89,6.22-.89,7.11,2.67,1.77-7.11,7.11-.89,7.11-6.22c10.67-2.67,15.11-10.67,15.11-10.67l5.33-13.34,2.67-5.33,5.33-8.89,4.44-6.22,4.58-2.08c-1.47-1.79-2.81-3.25-2.81-3.25l-2-8.67h.03Z"/>
  </g>
</svg>