<?xml version="1.0" encoding="UTF-8"?>
<svg id="_레이어_2" data-name="레이어 2" xmlns="http://www.w3.org/2000/svg" viewBox="0 0 270.45 291.2">
  <defs>
    <style>
      .cls-1 {
        fill: #fff;
        stroke: #61bbff;
        stroke-miterlimit: 10;
        stroke-width: 2px;
      }
    </style>
  </defs>
  <g id="_레이어_1-2" data-name="레이어 1">
    <path class="cls-1" d="M64.99,282.19l7.33,3.33,2.67,2.67,4.67,2s8.67-.67,10.67-2.67c2-2,6,1.34,6,1.34l8,.66,8.67-5.33,8-8,2.67-8v-12.66c0-2,5.33-2,5.33-2l8-1.34,2.67-7.33s-3.33-6-7.33-9.33c-4-3.33,0,0-2,1.33-2,1.34-10.67-2-10.67-2,0,0-4.67-3.34-6.67-3.34h-7.33c-2,0-4-.66-5.33-4.67-1.34-4,1.34-6,1.34-6l5.33-8,4-2.67-3.33-4.67v-8.67l2-.66c2-.66.66-6,.66-8.67s-2-3.33-2-5.33,1.34-6.67,1.34-6.67v-5.33l-3.34-6.67s-3.33-2-4-4c-.66-2-2.67-1.34-4.67-2.67-2-1.34,1.34-4,1.34-4l6.67-2.67,3.33-4,4,2,2.67,4,4.67.66,1.34-5.33s-2-4.67-2-6.67-2.67-4.67-2.67-4.67l.67-4,6.67-.66,4-3.33,4.67-3.33,6.67,2.67,5.33,4,4-.66-.66-6.67-3.34-6.67,3.34-6.67,5.33-.66,4.67-1.34,6-4,5.99.66,3.34,3.33,4,2,3.33-5.33,3.34-4.67,4-2,6,.66,3.34,4.67,5.33,3.33,3.33,4,4.67,1.34,4-.66h5.33l4.67-2v-4.67s-3.34-4.67-3.34-7.33,3.34-6,3.34-6l1.33-5.33,3.34-6,6-2,1.34-4,2.67-2.67h7.33l4.67-5.33.66-4.67h4.67l8.67-3.34,2.85-3.58c-1.39-.15-8.9-1.03-11.31-2.64-2.67-1.77-7.11-5.33-7.11-5.33l-7.11-3.56-6.22,1.77s-8-.89-8.89-3.56c-.89-2.67-1.77-8.89-1.77-8.89l-8-2.67-6.22,3.56h-9.78l-3.56-.89v-5.33l4.44-3.56,6.22-1.78,2.67-4.45s-6.22-2.67-8.89-3.56-11.55-5.33-11.55-5.33l-5.33,3.56h-10.67c-6.22,0-5.33,4.45-8,4.45s-8.01,3.56-8.01,3.56l-5.33-3.56s0-7.11-.89-9.78c-.89-2.67-3.56-6.22-3.56-6.22l-6.22.89s-7.11,3.56-10.67,8v7.11l-1.77,4.45-4.45,2.67s-12.44,0-20.44-1.78c-8-1.77-8-5.33-8-5.33,0,0-.34-2.35-.6-5.41-1.71,1.71-5.63,5.63-7.18,7.18-2,2-4,2.67-4,2.67l-4-.66-4,2.67-.66,6-3.34,6.67s-9.33,4.67-11.33,4.67-3.33,0-5.33-.66-6,0-8,0-7.33,5.33-7.33,5.33l-7.33,4-11.33,9.33-8.67,9.33-8.67,8.67s1.34,5.33,2.67,7.33c1.34,2,4.67,6,4.67,6l4,4.67,4,4.67,4.67,6v5.33l-2.67,2.67h-6l-2.67-2-5.33,4-4.67,4.67-1.34,6-.66,8.67s-2,5.33-2,7.33,2.67,8.67,2.67,8.67l2,5.33,5.33,6v7.33s-.17.87-.34,2l2.34.67,4.67,3.34,2.67,6.67,4.67,2.67,6-2.67,5.33,2.67,2,6.67,4.67,6-.66,4.67-4,4.67-2,4.67s-2.67,2.67-2.67,6,2,8.67,2,8.67c0,0-2.23,4.01-3.04,8.03l5.71.64,8.67,5.33s3.33.66,3.33,4.67,0,7.33.66,9.33c.66,2,1.34,6,2,9.33.66,3.34,2.67,12,2.67,12l-2.12,3.32,4.78,2.01,6.67,1.34-.02-.04Z"/>
  </g>
</svg>