<?xml version="1.0" encoding="UTF-8"?>
<svg id="_레이어_2" data-name="레이어 2" xmlns="http://www.w3.org/2000/svg" viewBox="0 0 277.83 269.37">
  <defs>
    <style>
      .cls-1 {
        fill: #fff;
        stroke: #61bbff;
        stroke-miterlimit: 10;
        stroke-width: 2px;
      }
    </style>
  </defs>
  <g id="_레이어_1-2" data-name="레이어 1">
    <g>
      <path class="cls-1" d="M51.64,112.31c0-2.67-5.33-8-5.33-8l-6.22.89-3.56,10.67,1.77,12.44.89,8.89,3.56,8.89,8,.89s6.22-4.44,6.22-7.11-1.77-10.67-1.77-13.34-3.56-11.55-3.56-14.23Z"/>
      <path class="cls-1" d="M274.1,236.99h0c-.66-3.35-1.34-7.34-2-9.34s-.66-5.33-.66-9.33-3.33-4.67-3.33-4.67l-8.67-5.33-6-.67-4,4.67s-8,2-10,2h-4l-3.33-4-2-7.33-4-2.67-.66,8.67-2.67,6.67-8-4.67s-3.34-6-4.67-12c-1.34-6-1.34-10-1.34-12s2-7.33,2-7.33l4-10.67-1.34-8.67h1.6l-1.6-2.67s-6.67-3.33-7.33-9.33c-.66-6,3.33-3.33,3.33-3.33l.66-3.33-4.67-6.67v-6.67c0-2,.66-4,.66-4,0,0-.66-5.33-3.33-5.33s-4.67-2-4.67-2c0,0-3.33-4.67-3.33-6.67s-2.67-4.67-3.33-8.67c-.66-4,0-4.67,0-6.67s.66-7.33.66-7.33c0,0,2.67-1.34,4.67-2,2-.66,4.67,0,4.67,0l8.67,4,4,3.34,6.67.66h5.33l4.67-4.67,5.33-4,2.67,2h6l2.67-2.67v-5.33l-4.67-6-4-4.67-4-4.67s-3.33-4-4.67-6c-1.34-2-2.67-7.33-2.67-7.33l-4-1.34-7.33-6s-8.67-8.67-10-10.67c-1.34-2-8-2-8-2l-6,5.33s-8,.66-10,.66-10.67,1.34-10.67,1.34l-14.89,2.67-4.45,4.45-9.78,4.44-3.56-8s-2.67-6.22-3.56-8.89-8-8.89-8-8.89l-11.55-5.33-12.44-4.45-8.01-5.33-10.67-7.11-7.11,4.44.89,12.44-3.56-.89-8-8-8.01.89-7.11,4.45v8l7.11,5.33.89,7.11-8,9.78-8.89-.89-1.77-5.33.89-6.22-1.77-8.89-6.22,4.45-4.45,3.56-8.89.89-3.56,7.11-5.33,8-8,6.22s-2.67,2.67-2.67,7.11v4.45s1.77,4.45,5.33,3.56l3.56-.89,7.11,1.77-3.56,4.45,1.77,7.11,8.89-3.56h3.56l1.77,12.44v13.34l8-.89s2.67-3.56,3.56-6.22c.89-2.67,3.56-1.77,5.33.89s5.33,5.33,5.33,5.33l9.78-4.45,3.56-5.33,2.67,10.67-2.67,14.23v15.11l.89,17.78,2.67,8,4.44,8.89-2.67,5.33-3.56,8,5.33,6.22v5.33l-3.56,6.22v6.22l-8.89,8-1.77,5.33,4.45.89h8l6.22,4.45,5.33,7.11,2.67,7.11,7.11,9.78,5.33,4.45s.06.12.15.32c3.22-1.07,6.65-2.22,7.64-2.54,2-.66,7.33-1.34,9.33-2,2-.66,4-1.34,6.67-4,2.67-2.67,2.67-4,6-7.33,3.33-3.33,3.33-4,3.33-4,0,0,5.33-6,8-7.33,2.67-1.34,7.33-2.67,7.33-2.67l8-1.33,12.66,6.67.66,5.33,6.67,5.33,6.67,1.34h4.67l4-2.67s6,2,9.33,2.67c3.33.66,4-2,4-2h6.67c2,0,4-.66,4-.66l5.33-3.34,4.67,2s2,7.33,2.67,9.33c.66,2,.66,4.67.66,6.67v9.33l1.34,3.33,6-5.33,3.33-2,1.34,3.33.66,6,7.33,2,6-2,2.67-2.67,2.67-4.67,4-1.34s4,2.67,5.33,4.67c1.34,2,1.34,3.33,1.34,3.33h4v-9.33l4.67-7.33s-2-8.67-2.67-12Z"/>
      <polygon class="cls-1" points="41.42 158.31 44.09 164.31 52.76 162.97 52.76 156.32 48.09 154.31 41.42 158.31"/>
    </g>
  </g>
</svg>