<?xml version="1.0" encoding="UTF-8"?>
<svg id="_레이어_2" data-name="레이어 2" xmlns="http://www.w3.org/2000/svg" viewBox="0 0 84.8 88.96">
  <defs>
    <style>
      .cls-1 {
        fill: #fff;
        stroke: #61bbff;
        stroke-miterlimit: 10;
        stroke-width: 2px;
      }
    </style>
  </defs>
  <g id="_레이어_1-2" data-name="레이어 1">
    <path class="cls-1" d="M36.48,66.32l5.33-2.67,7.33-.67,3.33,7.33,6.67.66,6-2.67s.66-6,.66-8,2.67-8,2.67-8c0,0,1.34-2.67,2-4.67s.66-3.34.66-5.33v-4.67l2-4h5.33c5.33,0,5.33-3.33,5.33-3.33l-1.33-4-3.34-5.33,2-4.67v-5.33s-1.33-5.33-2.67-7.33-8-2.67-8-2.67h-13.34l-9.33,5.33-7.33,6-2.67,6-2.67,5.33-6-.67-.66-6.67-3.34-2-8.67,1.34-6,6-2.67,3.33,3.34,5.33,9.33,2,4.67,2.67v5.33l-4.67,2.67-8,1.34-3.34,8.67,4,8,1.34,4.67-2.67,3.34-3.33,2.67-4.67-3.34H1.15l.66,4.67,2,4.67,3.34,3.34.66,6.67s4.67-1.34,6.67-1.34,11.33-2.67,11.33-2.67l5.33-8,.93,2.02,1.06-4.7,3.33-6.67h0Z"/>
  </g>
</svg>