<?xml version="1.0" encoding="UTF-8"?>
<svg id="_레이어_2" data-name="레이어 2" xmlns="http://www.w3.org/2000/svg" viewBox="0 0 57.38 73.4">
  <defs>
    <style>
      .cls-1 {
        fill: #fff;
        stroke: #61bbff;
        stroke-miterlimit: 10;
        stroke-width: 2px;
      }
    </style>
  </defs>
  <g id="_레이어_1-2" data-name="레이어 1">
    <path class="cls-1" d="M47,47.3c0-3.33,2.67-6,2.67-6l2-4.67,4-4.67.66-4.67-4.67-6-2-6.67-5.33-2.67-6,2.67-4.67-2.67-2.67-6.67-4.67-3.34-2.34-.67c-.16,1.07-.32,2.36-.32,3.34,0,2-4,5.33-4,5.33l-8,6.67h-6l1.34,8.67-4,10.67s-2,5.33-2,7.33,0,6,1.34,12c1.34,6,4.67,12,4.67,12l8,4.67,2.67-6.67.66-8.67,4,2.67,2,7.33,3.33,4h4c2,0,10-2,10-2l4-4.67.29.03c.81-4.02,3.04-8.03,3.04-8.03,0,0-2-5.33-2-8.67v.03Z"/>
  </g>
</svg>