<?xml version="1.0" encoding="UTF-8"?>
<svg id="_레이어_2" data-name="레이어 2" xmlns="http://www.w3.org/2000/svg" viewBox="0 0 414.85 388.05">
  <defs>
    <style>
      .cls-1 {
        fill: #fff;
        stroke: #61bbff;
        stroke-miterlimit: 10;
        stroke-width: 2px;
      }
    </style>
  </defs>
  <g id="_레이어_1-2" data-name="레이어 1">
    <path class="cls-1" d="M10.98,74.02l5.33,10.67,1.77,8.89,5.33,2.67,6.22-3.56,7.11-3.56,2.67,4.45-3.56,7.11-3.56,8.89,6.22,2.67,7.11-1.77,3.56-1.77h8.01l3.56,1.77.89,8.89,1.77,11.55c10.67,6.22,15.11,5.33,15.11,5.33l4.44,8,6.22,5.33,5.33,8.89-3.56,8.89-7.11,1.77-8,5.33s-3.56,6.22-3.56,8.89.89,6.22.89,6.22l-1.77,6.22s-2.67.89-2.67,3.56,1.77,6.22,1.77,6.22l6.22.89-.89,7.11s.89,2.67-.89,5.33c-1.77,2.67-1.77,8-1.77,8l3.56,1.77s2.67-3.56,5.33-3.56h2.67l8.01.89s2.67,4.45,5.33,7.11c2.67,2.67.89,1.77,6.22,5.33s16.88,7.11,16.88,7.11l7.11.89-7.11,6.22-8,4.45-1.77,8,7.11,5.33-5.33,10.67-3.56,7.11v11.55l-3.56,10.67s-3.56,7.11-3.56,12.44.89,11.55.89,11.55c0,0,0,3.56,8,5.33,8,1.78,20.44,1.78,20.44,1.78l4.45-2.67,1.77-4.45v-7.11c3.56-4.45,10.67-8,10.67-8l6.22-.89s2.67,3.56,3.56,6.22c.89,2.67.89,9.78.89,9.78l5.33,3.56s5.33-3.56,8.01-3.56,1.77-4.45,8-4.45h10.67l5.33-3.56s8.89,4.45,11.55,5.33c2.67.89,8.89,3.56,8.89,3.56l-2.67,4.45-6.22,1.78-4.44,3.56v5.33l3.56.89h9.78l6.22-3.56,8,2.67s.89,6.22,1.77,8.89c.89,2.67,8.89,3.56,8.89,3.56l6.22-1.77,7.11,3.56s4.45,3.56,7.11,5.33c2.67,1.77,11.55,2.67,11.55,2.67l3.56,4.45,9.78,3.56,6.22-.89.89-5.33,7.11-4.45h3.56l7.11,3.56,1.77,6.22,5.33,1.78,2.67-3.56,5.33-3.56,4.44-.89s2.67.89,5.33,1.77c2.67.89,8.89,2.67,8.89,2.67h7.11l7.11-4.45,10.66.89s.89,6.22,5.33,8.89c4.45,2.67,8,3.56,8,3.56l4.45-8,5.33-7.11,10.66-2.67,8.85-3.93c-.34-.89-.64-1.69-.84-2.3-.89-2.67,0-13.34,0-16v-8l-10.67-16.89s-.89-6.22-3.56-9.78-6.22-13.34-6.22-13.34c0,0-7.11-9.78-8.89-12.44s-8-9.78-8-9.78l-2.67-8-4.45-6.22s-1.77-1.77-3.56-8c-1.77-6.22-2.67-8-2.67-10.67v-10.67l-10.67-13.34-17.78-24-11.55-19.56-6.22-13.34-9.78-9.78-8.89-8.89-2.67-19.56-5.33-17.77s-4.45-8.89-4.45-12.44-8.89-24.89-8.89-24.89c0,0-6.22-7.11-6.22-12.44s-6.22-22.22-6.22-22.22l-6.22-10.67-2.67-11.55-5.33-11.55-5.33.89-6.22.88-4.45,8v11.55l.89,13.34-6.22,9.78-13.33,9.78-8.89,2.67-11.56,5.33-9.78,7.11-14.23-4.45-10.67-2.67-9.78-3.56-5.33,1.77-2.67,6.22-4.45-1.77-3.56-6.22-4.45-1.77-6.22,2.67-10.67.89-5.33-.89h-6.22l-6.22-2.67-3.56.89-8,3.56-4.45,1.77-3.56-1.77-7.11-2.67-3.56-4.45h-12.44s-6.22-.89-6.22,1.77-4.45,1.77-4.45,1.77l-6.22-5.33-8,.89h-8l-9.78,2.67-6.22,5.33-.07.03-1.71,7.98,9.78,3.56.04.03Z"/>
  </g>
</svg>