<?xml version="1.0" encoding="UTF-8"?>
<svg id="_레이어_2" data-name="레이어 2" xmlns="http://www.w3.org/2000/svg" viewBox="0 0 73.35 46.89">
  <defs>
    <style>
      .cls-1 {
        fill: #fff;
        stroke: #61bbff;
        stroke-miterlimit: 10;
        stroke-width: 2px;
      }
    </style>
  </defs>
  <g id="_레이어_1-2" data-name="레이어 1">
    <path class="cls-1" d="M64.33,15.02l-4.67-8-6-5.33h-4c-2,0-7.33,2-7.33,2l-12,2.67L20.99,1.03s-5.33.66-6.67,2.67c-1.34,2-7.33,8-7.33,8l-3.33,3.33s-2.67,4-2.67,6,0,4,2,7.33l2,3.34,6,2.67,7.33,2,4.67,4.67,4,4.67,6-.66,8.67.66,9.33-2.67,4,2,5.33.66s-.66-2,2-2.67,4.67-4.67,4.67-4.67l2-4.67s3.33-6,3.33-8-2.67-6.67-2.67-6.67l-5.33-4h-.02Z"/>
  </g>
</svg>