<?xml version="1.0" encoding="UTF-8"?>
<svg id="_레이어_2" data-name="레이어 2" xmlns="http://www.w3.org/2000/svg" viewBox="0 0 322.42 302.96">
  <defs>
    <style>
      .cls-1 {
        fill: #fff;
        stroke: #61bbff;
        stroke-miterlimit: 10;
        stroke-width: 2px;
      }
    </style>
  </defs>
  <g id="_레이어_1-2" data-name="레이어 1">
    <g>
      <path class="cls-1" d="M321.03,143.77c0-2-2-5.33-2-5.33,0,0-3.33-2-4.67-4-1.34-2-2.67-1.33-5.33-4-2.67-2.67-4-4.67-4.67-6.67-.66-2-6-4-6-4l-4-5.33-6-.66s-8.67-5.33-9.33-7.33c-.67-2,.66-7.33.66-7.33,0,0,4-2,6-2.67s0-8.67,0-8.67l2.03-2.7c-.56-.21-1.04-.42-1.36-.63-2-1.34-10-2.67-14-3.33v.06c-3.99-.66-5.32,0-5.32,0l-4.67,3.33s-6,3.34-8,3.34-5.33,4-5.33,4l-7.33,2.67h-10s-6.67-1.33-8-3.34c-1.34-2-7.33-.66-7.33-.66l-5.33-2-8,3.34-4-3.34-3.34-7.33-3.34-6-4-8.67-5.33,8s-9.33,2.67-11.33,2.67-6.67,1.34-6.67,1.34h-6.67l-5.33-1.34s-8-2.67-10-4-10.66-1.34-12.66-1.34h-6l-6-3.34,4-6,3.33-6.67,1.34-5.33-2-6.67-6.67-3.34s-2.67-2.67-4-6c-1.33-3.33-2.67-4-3.33-8-.66-4-2.67-2.67-2.67-2.67h-5.33l-13.34-1.34-4.67-5.33-5.33-2-4-3.33-8.82-10.21c-.32.44-.69.93-1.19,1.54-2.67,3.34-4.67,6-6.67,7.33-2,1.34-5.33,3.33-5.33,3.33l-8.67,4.67h-5.99s-5.33,4.67-6.67,6.67-4.67,6-6.67,9.33c-2,3.34-5.33,8.01-5.33,8.01l-6.67,18.67-1.34,7.33-4.67,8.67-1.34,7.33s1.34.66,3.33,4.67c2,4,2.67,2,3.33,6.67.66,4.67.66,6,.66,8s.66,5.33.66,5.33l2,5.33-3.33,5.33s-6-.67-8.67,2c-2.67,2.67-3.33,12-3.33,12,0,0,2.67,2,.66,4-.28.28-.43.54-.51.81l2.51,4.52s-1.34,4.67-1.34,6.67,1.34,5.33,1.34,10.01-.66,6,0,8c.66,2,5.33,6.67,5.33,6.67l6,2s2,3.33,2,8.01,6,12.66,6,12.66c0,0,4-.66,5.33,3.33,1.33,4,3.33,4.67,3.33,8.67s.66,8.67.66,8.67l-2.67,4c-2.67,4-9.33,4.67-9.33,4.67l-6.67,5.33-.77,6.13.76-.57,4.45,2.67,7.11,5.33,5.33-.89,2.67-8.89,10.66-2.67h4.45l8-2.67,5.33-3.56,11.55-.89s5.33.89,6.22-3.56c.89-4.45,3.56-9.78,3.56-9.78h3.56l2.67,7.11v8.01l-2.67,11.55,4.45,4.45,4.45,4.44,9.78.89h5.33l7.11-4.44h6.22l7.11,3.56,7.11-5.33,1.77,6.22-6.22,3.56-.89,5.33s2.67,1.77,6.22,1.77h10.67l-1.77,6.22-9.78,4.44-.89,3.56s7.11,1.77,8,6.22c.89,4.44,5.33,8.89,5.33,8.89l8.89-.89s1.78-4.45,1.78-7.11v-9.78l5.33-6.22.89-3.56-4.45-5.33-5.33-6.22v-7.11s-.89-4.45,1.77-7.11c2.67-2.67,8.89-5.33,8.89-5.33l2.67-4.45-.89-7.11-1.77-7.11,10.67-2.67s5.33-1.78,8,0c2.67,1.78,6.22,7.11,6.22,7.11l5.33-4.45-2.67-11.55,1.77-6.22s3.56,0,6.22,1.77,9.78,7.11,9.78,7.11c0,0,5.33.89,6.22,3.56s9.78,8.89,9.78,8.89h4.55c.97-1.79,1.76-3.29,2.12-4,1.33-2.67,2.67-6,2.67-6,0,0-.66-3.34-.66-5.33s-3.34-2.67-2-6c1.33-3.34,0,0,1.33-2,1.34-2,4.67,0,8.67-2.67,4-2.67,0,0,2-3.33,2-3.33,5.33-5.33,5.33-5.33,0,0,6-1.33,8.67-2.67s4-.66,8.01-1.34c4-.66,5.33-1.34,5.33-1.34,0,0,3.34-4,5.33-6l4.67-4.67,6-.67c6-.66,4-2.67,7.33-4.67,3.34-2,5.33-5.34,6.67-7.33,1.34-2,2.67-.66,2.67-.66l6.67-2.67,3.34-2,2.92-.32c-.15-1.04-.26-1.9-.26-2.34Z"/>
      <path class="cls-1" d="M70.39,263.14l-6.67-3.34-6-5.99v-4l2.67-5.33-.66-8h-6v.03s-6.68,4-6.68,4c0,0-6.67,3.33-8,5.33-1.34,2-2,8-2,8l.66,6.67,4.67,6-2,9.33,2,7.33s3.34,2,6,1.33c2.67-.66,6.67-2,6.67-2l6-8.01s2.67,4.67,2.67,6.67,2,4.67,2,4.67l6,1.33s6.67,3.33,8.67,3.33,2.67-4,2.67-4l2-6.67v-14l-5.33-1.34-9.33-1.34Z"/>
      <path class="cls-1" d="M83.03,245.17l-4.67-3.33h0s-7.33,1.33-8,3.32c-.66,2-4,7.33-2,8.67,2,1.34,7.33,4,7.33,4,0,0,8,1.33,10,2,2,.66,5.33-5.99,5.33-5.99l-8-4.67v-4Z"/>
      <path class="cls-1" d="M215.71,261.86l-4-3.34,4.67-5.33,2-4.67-3.34-6.67-2-5.33,2.67-5.33-2.67-6.67s-4,1.34-4.67,4c-.66,2.67-2.67,5.33-2.67,5.33l-4-2-4.67-1.34-.66,8.67,1.33,3.34-4.67,2,1.99,8.64-9.98-3.32s-7.33.66-9.33,2c-2,1.33-5.33,5.33-5.33,7.33s2,10,2,10l6,5.33,6.67-4.67,5.33-1.33s2.67,8,.66,8.67c-2,.66-6.67,2-6.67,2v4l4,2v6.67l-2.67,6,5.33,4,6.67-2,2-8.67,2.67-8.67,4.67-5.33,5.33,6.67h4l2.67-5.33-2-4.67v-4.67l4.67-3.33,1.33-3.33-.66-3.34-6.67,2.67Z"/>
      <path class="cls-1" d="M243.04,221.17s-9.33,1.34-9.33,3.34,3.34,8.67,3.34,8.67l6.67-.66,1.34-6.67-2-4.67h0Z"/>
      <path class="cls-1" d="M167.05,277.18h0v8c0,2,6,0,6,0v-7.33l-3.33-2.67-2.67,2Z"/>
    </g>
  </g>
</svg>