<?xml version="1.0" encoding="UTF-8"?>
<svg id="_레이어_2" data-name="레이어 2" xmlns="http://www.w3.org/2000/svg" viewBox="0 0 308.27 334.47">
  <defs>
    <style>
      .cls-1 {
        fill: #fff;
        stroke: #61bbff;
        stroke-miterlimit: 10;
        stroke-width: 2px;
      }
    </style>
  </defs>
  <g id="_레이어_1-2" data-name="레이어 1">
    <path class="cls-1" d="M41.94,95.74l-6.22,4.45-4.45,7.11s.89,5.33.89,8,3.56,9.78,3.56,9.78l.89,7.11-1.78,7.11s-2.67,3.56,0,6.22,3.56,3.56,7.11,4.44c3.56.89,8,1.77,10.67.89,2.67-.89,4.45-4.45,4.45-4.45,0,0,.89-6.22.89-8.89v-16.89c0-2.67-2.67-9.78-2.67-9.78l-2.67-8-6.22-6.22-4.45-.89h0Z"/>
    <path class="cls-1" d="M12.6,94.86l-6.22,8s.89,5.33,3.56,5.33,10.67-1.77,10.67-1.77c0,0,.89-.89.89-3.56s-.89-6.22-.89-6.22l-8-1.77h0Z"/>
    <path class="cls-1" d="M19.72,112.64c-2.67,4.45-5.33,8.01-5.33,8.01l1.77,5.33,4.45,5.33,1.77,7.11,5.33-3.56v-6.22l-.89-3.56-.89-4.45-2.67-5.33-3.56-2.67h0Z"/>
    <polygon class="cls-1" points="56.16 168.64 48.16 173.08 39.27 173.08 31.27 173.98 25.94 182.86 36.6 192.64 44.61 192.64 50.83 189.97 59.72 187.3 62.38 182.86 69.5 179.31 66.83 172.19 61.49 169.53 56.16 168.64"/>
    <polygon class="cls-1" points="32.16 197.97 30.38 205.97 35.71 208.64 39.27 202.42 35.71 197.97 32.16 197.97"/>
    <path class="cls-1" d="M18.83,161.53l1.77,5.33s1.77,0,4.45.89c2.67.89,7.11-1.77,7.11-1.77l-.89-5.33-8.89-.89-3.56,1.77Z"/>
    <polygon class="cls-1" points="6.38 133.09 1.04 140.19 1.93 147.3 7.27 141.97 6.38 133.09"/>
    <path class="cls-1" d="M97.94,203.3l1.34-7.33v-6c0-2-4-3.34-4-3.34,0,0-1.34-4-1.34-6s3.34-1.34,3.34-1.34l2.67-8,4-7.33-3.33-3.33s-8.67-4.67-11.33-6c-2.67-1.34-3.33-6-3.33-6,0,0-6.67.66-8.67.66s-6,6.9-6,6.9l1.77,12.44v17.77l4.45,11.55,8,6.22,3.56,3.56.18,1.6c2.24-1.27,4.29-2.51,5.38-3.39l3.33-2.67v.02Z"/>
    <path class="cls-1" d="M108.94,175.7l2.67,6-1.34,4.67,6,1.34,6,4,8,6.67h6.67s6-2,8-2,2.67,2.67,2.67,2.67l4,3.33h8.67l6-6,7.33-5.33s2-4.67,2-6.67.66-6,.66-6l3.33-4.67-3.33-1.34h-6l-4-2.67.66-2.67,2-5.33v-5.33l-.66-4.67s-.66-3.33-2-5.33c-1.34-2-4.67-2.67-4.67-2.67l-10.67-1.34-2.67,4.67-6,4.67-7.33-2-3.33,6.67-4,7.33-10-.66-7.33-2-6.81,1.86,1.48,1.48-4,7.33v.04l3.33.63,4.67,3.34h0Z"/>
    <path class="cls-1" d="M143.94,319.3c2,0,10-.66,10-.66l6-5.33s6.67,0,8,2c1.34,2,10,10.67,10,10.67l7.33,6,4,1.34,8.67-8.67,8.67-9.33,11.33-9.33,7.33-4s5.33-5.33,7.33-5.33,6-.66,8,0c2,.66,3.33.66,5.33.66s11.33-4.67,11.33-4.67l3.34-6.67.66-6,4-2.67,4,.66s2-.66,4-2.67l7.18-7.18c-.16-1.91-.29-4.1-.29-6.15,0-5.33,3.56-12.44,3.56-12.44l3.56-10.67v-11.55l3.56-7.11,5.33-10.67-7.11-5.33,1.77-8,8-4.45,7.11-6.22-7.11-.89s-11.55-3.56-16.88-7.11c-5.33-3.56-3.56-2.67-6.22-5.33s-5.33-7.11-5.33-7.11l-8.01-.89h-2.67c-2.67,0-5.33,3.56-5.33,3.56l-3.56-1.77s0-5.33,1.77-8c1.77-2.67.89-5.33.89-5.33l.89-7.11-6.22-.89s-1.77-3.56-1.77-6.22,2.67-3.56,2.67-3.56l1.77-6.22s-.89-3.56-.89-6.22,3.56-8.89,3.56-8.89l8-5.33,7.11-1.77,3.56-8.89-5.33-8.89-6.22-5.33-4.44-8s-4.45.89-15.11-5.33l-1.77-11.55-.89-8.89-3.56-1.77h-8.01l-3.56,1.77-7.11,1.77-6.22-2.67,3.56-8.89,3.56-7.11-2.67-4.45-7.11,3.56-6.22,3.56-5.33-2.67-1.77-8.89-5.33-10.67-9.78-3.56,1.71-7.98-7.04,2.64-10.67,1.77-6.22,3.56-.89,8.89-3.56,1.77-9.78-5.33-8-.89-5.33.89-9.78,5.33-8,6.22-.89,8,1.77,7.11,5.33,3.56s2.67.89,7.11,0c4.44-.89,8.89.89,8.89.89l3.56,2.67-2.67,4.44-1.77,4.45-7.11.89-3.56,4.45-3.56,1.77-.89,4.45,4.44,7.11v7.11l-3.56,2.67-3.56-1.77-5.33-5.33.89-6.22h-4.45s-2.67,2.67-5.33,2.67h-8l-2.67,3.56,6.22,2.67s4.45,2.67,5.33,5.33c.89,2.67,1.77,9.78,1.77,9.78l-7.11,1.77-.89,4.45-1.77,5.33v27.55c0,2.67-6.22,2.67-6.22,2.67l.89-8.01-3.56-12.44-10.67-1.77-7.11.89-1.77,7.11v19.56l3.56,8,2.67,4.45s4-6.9,6-6.9,8.67-.66,8.67-.66c0,0,.66,4.67,3.33,6,2.67,1.34,11.33,6,11.33,6l1.86,1.86,6.81-1.86,7.33,2,10,.66,4-7.33,3.33-6.67,7.33,2,6-4.67,2.67-4.67,10.67,1.34s3.33.66,4.67,2.67,2,5.33,2,5.33l.66,4.67v5.33l-2,5.33-.66,2.67,4,2.67h6l3.33,1.34-3.33,4.67s-.66,4-.66,6-2,6.67-2,6.67l-7.33,5.33-6,6h-8.67l-4-3.33s-.66-2.67-2.67-2.67-8,2-8,2h-6.67l-8-6.67-6-4-6-1.34,1.34-4.67-2.67-6-4.67-3.34-3.35-.63-2.66,7.96s-3.34-.66-3.34,1.34,1.34,6,1.34,6c0,0,4,1.34,4,3.34v6l-1.34,7.33-3.33,2.67c-1.1.88-3.14,2.12-5.38,3.39l.71,6.39-2.67,6.22,3.56,4.45,3.56,7.11h-7.11l-9.78-.89-7.11-.89-10.67,2.67s-2.67,7.11-2.67,9.78,6.22,4.45,6.22,4.45l6.22-.89s5.33,3.56,5.33,8.89,2.67,11.55,2.67,11.55l7.11.89,7.11-7.11h8l-.89,10.67-5.33,4.45v10.67l1.77,7.11s7.11,10.67,7.11,13.34,9.78,11.55,9.78,11.55l6.22,3.56,14.89-2.67s8.67-1.34,10.67-1.34v-.05Z"/>
  </g>
</svg>