<?xml version="1.0" encoding="UTF-8"?>
<svg id="_레이어_2" data-name="레이어 2" xmlns="http://www.w3.org/2000/svg" viewBox="0 0 339.08 364.72">
  <defs>
    <style>
      .cls-1 {
        fill: #fff;
        stroke: #61bbff;
        stroke-miterlimit: 10;
        stroke-width: 2px;
      }
    </style>
  </defs>
  <g id="_레이어_1-2" data-name="레이어 1">
    <path class="cls-1" d="M332.75,259.51l-3.56,3.56-3.56,5.33-5.33,5.33-5.33,1.77s-7.11.89-8.89-1.77l-1.77-2.67-3.56-8,4.45-4.45,1.77-8.01s0-6.22-1.77-9.78c-1.78-3.56-4.45-10.67-4.45-10.67v-14.22c0-4.45,0-1.77.89-8.89.89-7.11,3.56-10.67,3.56-13.34s4.44-8,4.44-8l4.45-9.78,2.67-8s2.67-5.33,2.67-10.67-.89-10.67-2.67-14.23l-1.77-3.56s-1.77-4.45,1.77-13.34c3.56-8.89,8.89-16,8.89-16l1.77-7.11-.89-8.89-3.56-11.55s-5.33-8.89-5.33-11.55-.89-13.34-.89-18.67,4.45-13.34,4.45-16,.89-14.23,0-16.89-4.45-6.22-5.33-8.89c-.68-2.06-2.43-6.24-3.6-9.27l-8.85,3.93-10.66,2.67-5.33,7.11-4.45,8s-3.56-.89-8-3.56c-4.45-2.67-5.33-8.89-5.33-8.89l-10.66-.89-7.11,4.45h-7.11s-6.22-1.77-8.89-2.67c-2.67-.89-5.33-1.77-5.33-1.77l-4.44.89-5.33,3.56-2.67,3.56-5.33-1.78-1.77-6.22-7.11-3.56h-3.56l-7.11,4.45-.89,5.33-6.22.89-9.78-3.56-3.56-4.45s-.1,0-.25-.03l-2.85,3.58-8.67,3.34h-4.67l-.66,4.67-4.67,5.33h-7.33l-2.67,2.67-1.34,4-6,2-3.34,6-1.33,5.33s-3.34,3.33-3.34,6,3.34,7.33,3.34,7.33v4.67l-4.67,2h-5.33l-4,.66-4.67-1.34-3.33-4-5.33-3.33-3.34-4.67-6-.66-4,2-3.34,4.67-3.33,5.33-4-2-3.34-3.33-5.99-.66-6,4-4.67,1.34-5.33.66-3.34,6.67,3.34,6.67.66,6.67-4,.66-5.33-4-6.67-2.67-4.67,3.33-4,3.33-6.67.66-.67,4s2.67,2.67,2.67,4.67,2,6.67,2,6.67l-1.34,5.33-4.67-.66-2.67-4-4-2-3.33,4-6.67,2.67s-3.33,2.67-1.34,4c2,1.34,4,.66,4.67,2.67s4,4,4,4l3.34,6.67v5.33s-1.34,4.67-1.34,6.67,2,2.67,2,5.33,1.34,8-.66,8.67l-2,.66v8.67l3.33,4.67-4,2.67-5.33,8s-2.67,2-1.34,6c1.34,4,3.33,4.67,5.33,4.67h7.33c2,0,6.67,3.34,6.67,3.34,0,0,8.67,3.33,10.67,2s-2-4.67,2-1.33c4,3.33,7.33,9.33,7.33,9.33l-2.67,7.33-8,1.34s-5.33,0-5.33,2v12.66l-2.67,8-8,8-8.67,5.33-4.52-.38-.82,3.04,4.67,7.33,2,3.33.66,8-5.99,4s-.03.47-1.48,2.46l8.82,10.21,4,3.33,5.33,2,4.67,5.33,13.34,1.34h5.33s2-1.34,2.67,2.67c.66,4,2,4.67,3.33,8,1.34,3.34,4,6,4,6l6.67,3.34,2,6.67-1.34,5.33-3.33,6.67-4,6,6,3.34h6c2,0,10.67,0,12.66,1.34,2,1.34,10,4,10,4l5.33,1.34h6.67l-.66-6.67-3.34-3.34-2-4.67-.66-4.67h2.67l4.67,3.34,3.33-2.67,2.67-3.34-1.34-4.67-4-8,3.34-8.67,8-1.34,4.67-2.67v-5.33l-4.67-2.67-9.33-2-3.34-5.33,2.67-3.33,6-6,8.67-1.34,3.34,2,.66,6.67,6,.67,2.67-5.33,2.67-6,7.33-6,9.33-5.33h13.34s6.67.66,8,2.67c1.34,2,2.67,7.33,2.67,7.33v5.33l-2,4.67,3.34,5.33,1.33,4s0,3.33-5.33,3.33h-5.33l-2,4v4.67c0,2,0,3.34-.66,5.33-.66,2-2,4.67-2,4.67,0,0-2.67,6-2.67,8s-.66,8-.66,8l-6,2.67-6.67-.66-3.33-7.33-7.33.67-5.33,2.67-3.33,6.67-1.06,4.7,3.06,6.64,3.34,6,3.34,7.33,4,3.34,8-3.34,5.33,2s6-1.34,7.33.66c1.34,2,8,3.34,8,3.34h10l7.33-2.67s3.33-4,5.33-4,8-3.34,8-3.34l4.67-3.33s1.34-.66,5.33,0c4,.66,12,2,14,3.33.31.21.8.43,1.36.63l1.97-2.63,5.33-.66s.66-4,2.67-8c2-4,4.67-4.67,4.67-4.67,0,0,4-2.67,6-4,2-1.34,3.33,0,3.33,0l5.33,1.34,5.99,2c6,2,7.33,1.34,7.33,1.34l2.67,5.33s3.33,5.33,4.67,7.33c1.34,2,2,2.67,2,2.67l6.67-1.33,4.67-3.34,11.33,1.34,7.33,4,3.83.72,9.06-18.93,2.67-14.22,1.77-13.34,1.77-7.11,2.67-3.56,6.22-11.55,3.56-8,.89-10.67-5.33-8.89h.03Z"/>
  </g>
</svg>