<?xml version="1.0" encoding="UTF-8"?>
<svg id="_레이어_2" data-name="레이어 2" xmlns="http://www.w3.org/2000/svg" viewBox="0 0 87.58 63.42">
  <defs>
    <style>
      .cls-1 {
        fill: #fff;
        stroke: #61bbff;
        stroke-miterlimit: 10;
        stroke-width: 2px;
      }
    </style>
  </defs>
  <g id="_레이어_1-2" data-name="레이어 1">
    <g>
      <polygon class="cls-1" points="43.89 21.99 38.56 21.1 30.56 25.55 21.66 25.55 13.67 26.44 8.34 35.33 19 45.11 27 45.11 33.23 42.43 42.11 39.77 44.78 35.33 51.89 31.77 49.23 24.66 43.89 21.99"/>
      <polygon class="cls-1" points="14.56 50.44 12.78 58.44 18.11 61.11 21.66 54.89 18.11 50.44 14.56 50.44"/>
      <path class="cls-1" d="M14.56,18.45l-.89-5.33-8.89-.89-3.56,1.77,1.77,5.33s1.77,0,4.45.89c2.67.89,7.11-1.77,7.11-1.77Z"/>
      <path class="cls-1" d="M79.67,31.75l2.67-8,4-7.33-3.33-3.33s-8.67-4.67-11.33-6c-2.67-1.34-3.33-6-3.33-6,0,0-6.67.66-8.67.66s-6,6.9-6,6.9l1.77,12.44v17.77l4.45,11.55,8,6.22,3.56,3.56.18,1.6c2.24-1.27,4.29-2.51,5.38-3.39l3.33-2.67v.02l1.34-7.33v-6c0-2-4-3.34-4-3.34,0,0-1.34-4-1.34-6s3.34-1.34,3.34-1.34Z"/>
    </g>
  </g>
</svg>