<?xml version="1.0" encoding="UTF-8"?>
<svg id="_레이어_2" data-name="레이어 2" xmlns="http://www.w3.org/2000/svg" viewBox="0 0 157.56 83">
  <defs>
    <style>
      .cls-1 {
        fill: #fff;
        stroke: #61bbff;
        stroke-miterlimit: 10;
        stroke-width: 2px;
      }
    </style>
  </defs>
  <g id="_레이어_1-2" data-name="레이어 1">
    <path class="cls-1" d="M65.89,9.09l-9.78,6.22-12.44-.89-10.67,7.11s-2.67,3.56-5.33,4.45-7.11,5.33-7.11,5.33l-8.89,8-8.89,5.33-1.77,9.78v9.78l7.11,13.34,9.78,4.45,8.89-.89,3.56-6.22s8.89.89,11.55.89,5.33-.89,19.56.89c14.23,1.77,25.78,1.77,25.78,1.77l8.89-2.67s8.01-2.67,12.44-2.67h15.11l11.55-5.33,8.01-5.33,4.45-7.11,6.22-4.45,2.67-11.55v-16.89l-8.89-13.34-20.44-8-5.33,2.67-15.11,1.77h-12.44l-9.78,1.77-18.67,1.77h-.02Z"/>
  </g>
</svg>