<?xml version="1.0" encoding="UTF-8"?>
<svg id="_레이어_2" data-name="레이어 2" xmlns="http://www.w3.org/2000/svg" viewBox="0 0 295.39 210.86">
  <defs>
    <style>
      .cls-1 {
        fill: #fff;
        stroke: #61bbff;
        stroke-miterlimit: 10;
        stroke-width: 2px;
      }
    </style>
  </defs>
  <g id="_레이어_1-2" data-name="레이어 1">
    <path class="cls-1" d="M8.31,168.37s-1.34,4-1.34,7.33,2.67,6,2.67,6c0,0,1.34,4,1.34,6s4,3.33,4,3.33l4.67-1.34,5.33.66,4,2.67,4.67-.67,2-5.33,6-2,6.67-4s3.34-4.67,4.67-7.33c1.34-2.67.66-7.33.66-7.33,0,0,2-5.33,3.33-7.33,1.34-2,8.67-2.67,8.67-2.67h10l4.67,1.33s3.34,2.67,4,4.67,4.67,8.67,4.67,8.67l1.34,6.67,4,2.67,4.67-3.33.66-10,6-6,6-1.34,5.33,4,1.34,7.33-3.34,5.33,2,5.33v6.67l-4.67,4-2,3.34,6.67,2,4.67,5.33,4-1.34s4.67-1.34,7.33-1.34,4.67-.66,6.67-.66,3.33,0,6-1.34c2.67-1.34,5.33.67,5.33.67l8.67,4.67h6l8.67,1.34,8-2,6.67-6.67,6,1.34s4,.66,8.67.66,6,2.67,7.33,4.67c1.34,2,4.67,4,8.67,6,4,2,0,0,2-2s-.66-4-.66-4c0,0,.66-9.33,3.33-12s8.67-2,8.67-2l3.33-5.33-2-5.33s-.66-3.34-.66-5.33,0-3.33-.66-8c-.66-4.67-1.33-2.67-3.33-6.67-2-4-3.33-4.67-3.33-4.67l1.34-7.33,4.67-8.67,1.34-7.33,6.67-18.67s3.33-4.67,5.33-8.01c2-3.33,5.33-7.33,6.67-9.33,1.34-2,6.67-6.67,6.67-6.67h5.99l8.67-4.67s3.33-2,5.33-3.33c2-1.33,4-4,6.67-7.33,2.67-3.34,2.67-4,2.67-4l5.99-4-.66-8-2-3.33-4.67-7.33.82-3.04-3.48-.29s-4-3.34-6-1.34c-2,2-10.67,2.67-10.67,2.67l-4.67-2-2.67-2.67-7.33-3.33-6.67-1.34-4.78-2.01-2.55,4.01v9.33h-4s0-1.33-1.34-3.33-5.33-4.67-5.33-4.67l-4,1.34-2.67,4.67-2.67,2.67-6,2-7.33-2-.66-6-1.34-3.33-3.33,2-6,5.33-1.34-3.33v-9.33c0-2,0-4.67-.66-6.67-.66-2-2.67-9.33-2.67-9.33l-4.67-2-5.33,3.34s-2,.66-4,.66h-6.67s-.66,2.67-4,2c-3.33-.66-9.33-2.67-9.33-2.67l-4,2.67h-4.67l-6.67-1.34-6.67-5.33-.66-5.33-12.66-6.67-8,1.33s-4.67,1.34-7.33,2.67c-2.67,1.34-8,7.33-8,7.33,0,0,0,.66-3.33,4-3.34,3.34-3.34,4.67-6,7.33-2.67,2.67-4.67,3.33-6.67,4-2,.66-7.33,1.34-9.33,2-.99.33-4.42,1.47-7.64,2.54.52,1.14,2.12,5.02-.15,5.02-2.67,0-5.33,1.77-8,1.77h-8.01l-13.34-1.77-6.22,4.45,2.67,3.56,7.11.89,3.56.89,1.77,6.22,1.77,8.89,7.11-1.77,14.22-1.77,15.11-2.67.89,5.33s-3.56,3.56-6.22,3.56h-7.11c-2.67,0-8,.89-8,.89,0,0-4.45,2.67-2.67,6.22,1.77,3.56,8.01,6.22,8.01,6.22l4.45,5.33,2.67,6.22-8.01-.89-6.22-5.33h-3.56l-6.22.89-8.89,8.89-5.33,8.89-8,1.77-10.67,5.33-6.22,5.33s-.89,3.56,0,8c.89,4.45,5.33,7.11,5.33,7.11l9.78-.89,16,2.67,6.22,5.33-7.11.89h-6.22l-3.56.89-9.78,1.77-6.22,3.56-8,6.22-5.69,7.11c2.03,2.25,3.85,4.33,4.36,5.1,1.34,2,2.67,6,2.67,6h-.03Z"/>
  </g>
</svg>