<?xml version="1.0" encoding="UTF-8"?>
<svg id="_레이어_2" data-name="레이어 2" xmlns="http://www.w3.org/2000/svg" viewBox="0 0 372.77 282.29">
  <defs>
    <style>
      .cls-1 {
        fill: #fff;
        stroke: #61bbff;
        stroke-miterlimit: 10;
        stroke-width: 2px;
      }
    </style>
  </defs>
  <g id="_레이어_1-2" data-name="레이어 1">
    <g>
      <path class="cls-1" d="M371.12,123c0-4-2-4.67-3.33-8.67-1.34-4-5.33-3.33-5.33-3.33,0,0-6-8.01-6-12.66s-2-8.01-2-8.01l-6-2s-4.67-4.67-5.33-6.67c-.66-2,0-3.33,0-8s-1.34-8-1.34-10.01,1.34-6.67,1.34-6.67l-2.51-4.52c-.53,1.66,1.96,2.92-1.49,1.2-4-2-7.33-4-8.67-6-1.34-2-2.67-4.67-7.33-4.67s-8.67-.66-8.67-.66l-6-1.34-6.67,6.67-8,2-8.67-1.34h-6l-8.67-4.67s-2.67-2-5.33-.67c-2.67,1.34-4,1.34-6,1.34s-4,.66-6.67.66-7.33,1.34-7.33,1.34l-4,1.34-4.67-5.33-6.67-2,2-3.34,4.67-4v-6.67l-2-5.33,3.34-5.33-1.34-7.33-5.33-4-6,1.34-6,6-.66,10-4.67,3.33-4-2.67-1.34-6.67s-4-6.67-4.67-8.67-4-4.67-4-4.67l-4.67-1.33h-10s-7.33.66-8.67,2.67-3.33,7.33-3.33,7.33c0,0,.66,4.67-.66,7.33-1.34,2.67-4.67,7.33-4.67,7.33l-6.67,4-6,2-2,5.33-4.67.67-4-2.67-5.33-.66-4.67,1.34s-4-1.34-4-3.33-1.34-6-1.34-6c0,0-2.67-2.67-2.67-6s1.34-7.33,1.34-7.33c0,0-1.34-4-2.67-6-.51-.78-2.33-2.85-4.36-5.1l-1.42,1.77-3.56,6.22-1.77,7.11v6.22l-5.33,3.56-2.67,3.56-4.45,8.89-8.89,4.45-3.56,8.89v5.33l8.89,3.56,6.22,12.44,8.89,10.66,5.33,3.56-1.77,4.45-7.11,4.44-3.56,5.33-6.22-8-6.22,2.67s-1.77,1.77,0,4.45l1.77,2.67-4.45,6.22-3.56,5.33-4.45,5.33,7.11,4.45,8-.88,3.56,8.89-5.33,8.01s-5.33,4.45-5.33,7.11v13.34l2.67,7.11,8.89,3.56,7.11,5.33,8,6.22v7.11l-7.11-1.77-7.11-8.01-8.01-1.77-3.56,1.77v5.33l4.45,6.22v8.89l-7.11-1.78s-.89-8.89-1.78-11.55c-.89-2.67-3.56-9.78-3.56-9.78l-4.45-3.56-7.11-.89s-4.44,3.56-4.44,6.22,1.77,10.67,1.77,10.67l3.56,7.11s6.22,7.11,9.78,11.55c3.56,4.45,5.33,8.01,8,8.01s8.01.89,8.01.89l3.56,9.78,1.77,8.89,5.33,4.44-2.67,6.22-1.77,5.33s-.89,1.77-.89,5.33,3.56,11.55,3.56,11.55l3.56,6.22,8-.89s4.45-1.77,7.11-5.33c2.67-3.56,3.56-6.22,4.45-10.67s4.45-6.22,4.45-6.22l12.44-7.11,7.11-1.77s4.45-3.56,4.45-6.22,3.56-15.11,3.56-15.11l7.11-7.11s2.67,5.33,1.77,8-1.77,3.56-1.77,8,.89,10.67,1.77,13.34c.89,2.67,4.45,5.33,4.45,5.33,0,0,2.67.89,5.33.89s11.55-1.78,11.55-1.78c0,0,1.77-2.67,4.45-5.33,2.67-2.67,4.45-6.22,4.45-6.22l4.45-7.11,2.67-7.11v-8.89l2.67-4.45,7.11-3.56,3.56-2.67,9.78-5.33,8.89-1.77,10.67-5.33,9.78-8.01,7.11,2.67,5.33.89,3.56,7.11-5.33,10.66-1.77-6.22-7.11-1.77-4.45,5.33v8.89l-6.22,8-3.56-.89-6.22.89s-11.55,3.56-11.55,6.22,3.56,11.55,3.56,11.55c0,0,4.45.89,7.11.89h8.89c2.67,0,4.45-2.67,7.11,1.77,2.67,4.45,5.33,8.89,5.33,8.89l4.44,10.67,5.33-.89s0-3.56,1.77-6.22c1.77-2.67,5.33-2.67,5.33-2.67,0,0,1.77-.89,4.45-4.45,2.67-3.56,6.22-4.45,6.22-4.45v-5.33s-2.67-6.22,0-6.22,8.01-1.77,8.01-1.77l7.11-1.78,1.77-7.11-2.67-6.22-8.89-8.89s-6.22-5.33-6.22-8.01v-13.34l5.33-8,12.44-7.11h13.34s.89,2.67,1.77,5.33c.89,2.67,5.33,10.67,5.33,10.67l-.89,8-3.56,6.22v9.78l5.33,7.11,5.33,2.67,2.67-3.56v-8.89l5.33-7.11h8.89l9.78,4.45,3.56-3.56v-8s.89-5.33.89-8.01v-11.55l-6.22-1.77s-7.11,1.77-9.78,1.77-13.34-2.67-13.34-2.67l-3.56-9.78,1.77-4.45h15.11l2.8-2.1.77-6.13,6.67-5.33s6.67-.66,9.33-4.67l2.67-4s-.66-4.67-.66-8.67l.06.04ZM220.45,87.67l-2,4.67s-2,4-4.67,4.67c-2.67.66-2,2.67-2,2.67l-5.33-.66-4-2-9.33,2.67-8.67-.66-6,.66-4-4.67-4.67-4.67-7.33-2-6-2.67-2-3.34c-2-3.33-2-5.33-2-7.33s2.67-6,2.67-6l3.33-3.33s6-6,7.33-8c1.34-2,6.67-2.67,6.67-2.67l9.33,5.33,12-2.67s5.33-2,7.33-2h4l6,5.33,4.67,8,5.33,4s2.67,4.67,2.67,6.67-3.33,8-3.33,8h.02Z"/>
      <path class="cls-1" d="M70.45,209.9l-2.67,6.22-6.22,4.45-5.33.89s-.89.89-6.22,3.56c-5.33,2.67-8.01,2.67-9.78,5.33-1.77,2.67-4.44,1.78-5.33,6.22-.89,4.44-.89,8-.89,8,0,0,.89,4.45,2.67,7.11,1.77,2.67-5.33-.89,1.77,2.67,7.11,3.56,7.11,4.45,13.34,3.56,6.22-.89,14.22-2.67,14.22-2.67,0,0,1.78-2.67,5.33-2.67s9.78.89,10.67-2.67,0-4.45,1.77-7.11,4.45-10.66,4.45-10.66l-2.67-9.78-5.33-6.22-9.78-6.22h0Z"/>
      <path class="cls-1" d="M51.79,68.34l-8,.66-6,5.34s-3.33,3.33-3.33,5.33,2.67,8,2.67,8l6.67.66,6-2,3.34-7.33,2-4.67-3.33-6h-.02Z"/>
      <path class="cls-1" d="M83.11,69.01l-6.67,4.67s-.66,2.67-3.34,4.67c-2.67,2-8,2.67-8,2.67l-3.33-.66-2,4.67s2,3.34,4,4.67c2,1.33,5.33.66,6,2.67.66,2,3.33,6,3.33,6l3.34.66,3.33-3.34,4-4,4-2.67,4-1.34,3.33-3.33.66-5.33-.66-6.67-8-2-4-1.34h0Z"/>
      <polygon class="cls-1" points="55.11 90.34 50.45 92.34 50.45 98.34 54.45 102.34 57.12 106.34 61.78 109.01 63.11 106.34 63.78 100.34 63.78 95.67 55.11 90.34"/>
      <polygon class="cls-1" points="48.45 106.34 47.11 112.33 51.11 115.01 53.78 112.33 53.78 108.34 51.11 106.34 48.45 106.34"/>
      <path class="cls-1" d="M80.45,127.67h5.33l2.67,2.67.66,4,1.34,4v4l-4.67,5.33-6-4s-2-.66-4-.66-11.33-3.33-11.33-3.33l1.34-3.34h6l4.67-2,4-6.67h0Z"/>
      <path class="cls-1" d="M31.12,117.67l-8.67,5.33v8.67s3.34,5.33,5.33,4c2-1.34,4.67-1.34,6.67-2s6-5.33,6-5.33l-.66-8.01s-8.67-2.67-8.67-2.67Z"/>
      <path class="cls-1" d="M45.12,131.67l-4,2.67-5.33,4-1.34,6s4.67,2.67,6.67,2.67,6-4,6-4l3.34-4.67v-2.67l-2-3.34-3.33-.66h0Z"/>
      <path class="cls-1" d="M43.12,155.67s-6.67,2-6,4c.66,2,4.67,4.67,4.67,4.67l4.67,4,5.33,3.34s2-2,2.67-4-2-8-2-8l-9.33-4h0Z"/>
      <path class="cls-1" d="M15.78,145.67l-4.67,4s-9.33-1.34-9.33,1.34-.66,8.67-.66,8.67h6.67s4.67-2.67,6.67-2.67,7.33-2,7.33-2l-2-8-4-1.34h0Z"/>
      <path class="cls-1" d="M14.44,163l-7.33,5.33-1.34,8.67,5.33,3.33s7.33,1.34,7.33-2.67,2-12,2-12l-6-2.67h0Z"/>
      <path class="cls-1" d="M45.78,179s-5.33,2-6,6c-.66,4,2.67,9.33,2.67,9.33h6.67l8-8-3.33-6-8-1.33h0Z"/>
      <path class="cls-1" d="M29.78,188.34s-4,3.34-3.34,5.33c.66,2,.66,9.33.66,9.33l-3.34,6.67s1.34,7.33,2.67,5.33c1.34-2,4.67-5.33,4.67-5.33,0,0,6-2.67,6-4.67s-2-8.67-2-8.67l-1.34-5.33-4-2.67h.02Z"/>
      <path class="cls-1" d="M147.12,255.67l-8,3.33v8.67s2,6,4,8c2,2,3.33,4.67,6.67,5.33,3.33.66,10.67,0,10.67,0,0,0-1.34-3.34,2-3.34s4-.66,6,.66c2,1.34,5.33,2.67,7.33,2.67s4.67-2.67,4.67-4.67-2.67-6.67-2.67-6.67l-9.33.66-10.67-2-4-8-6.67-4.67v.02Z"/>
      <path class="cls-1" d="M169.11,250.34l-5.33,3.33-2,6.67s.66,2.67,4.67,2.67,10.67-3.34,10.67-3.34l-3.33-6-4.67-3.33h0Z"/>
      <path class="cls-1" d="M184.45,257.01s-2.67,5.33-1.34,7.33c1.34,2,2.67,5.33,6.67,5.33s8-.66,8-2.67-.66-7.33-.66-7.33l-8.67-1.33-4-1.34h0Z"/>
      <polygon class="cls-1" points="209.11 265.68 207.12 270.34 211.11 276.34 218.45 277.01 223.79 273.01 220.45 269.67 213.79 267.68 209.11 265.68"/>
      <path class="cls-1" d="M247.12,241.01l-10,2s-4.67,0-5.33,2-.66,1.34-.66,5.33v4l7.33,2h9.33c2,0,4.67-1.33,4.67-1.33l3.33-6.67-.66-4-8-3.33h0Z"/>
      <polygon class="cls-1" points="301.12 235 297.79 239.01 299.12 245.67 305.78 249.68 307.78 244.34 304.46 238.34 301.12 235"/>
      <path class="cls-1" d="M365.12,206.34s-7.33,1.33-8,3.33c-.66,2-2.67,2.67-2.67,6v7.33l6.67,6.67h6.67l2-7.33v-6.67l.66-6-5.33-3.33h0Z"/>
      <polygon class="cls-1" points="345.78 226.34 338.45 228.34 338.45 234.34 342.45 235.68 347.78 233.68 348.46 229.01 345.78 226.34"/>
      <path class="cls-1" d="M358.45,236.34l-6,3.34s-1.33,4,.66,5.33c2,1.34,6.67,4.67,6.67,4.67l7.33,2.67,1.34-5.33-2-5.33-8-5.33h0Z"/>
    </g>
  </g>
</svg>