<?xml version="1.0" encoding="UTF-8"?>
<svg id="_레이어_2" data-name="레이어 2" xmlns="http://www.w3.org/2000/svg" viewBox="0 0 42.96 76.96">
  <defs>
    <style>
      .cls-1 {
        fill: #fff;
        stroke: #61bbff;
        stroke-miterlimit: 10;
        stroke-width: 2px;
      }
    </style>
  </defs>
  <g id="_레이어_1-2" data-name="레이어 1">
    <path class="cls-1" d="M23.96,8.64l-4-3.34L11.29,1.3s-2.67-.66-4.67,0C4.62,1.96,1.96,3.3,1.96,3.3c0,0-.66,5.33-.66,7.33s-.66,2.67,0,6.67c.66,4,3.33,6.67,3.33,8.67s3.33,6.67,3.33,6.67c0,0,2,2,4.67,2s3.33,5.33,3.33,5.33c0,0-.66,2-.66,4v6.67l4.67,6.67-.66,3.33s-4-2.67-3.33,3.33c.66,6,7.33,9.33,7.33,9.33l1.6,2.67h4.4l8-6.67s4-3.33,4-5.33.66-5.33.66-5.33v-7.33l-5.33-6-2-5.33s-2.67-6.67-2.67-8.67,2-7.33,2-7.33l.66-8.67,1.34-6h-5.33l-6.67-.66h0Z"/>
  </g>
</svg>