<?xml version="1.0" encoding="UTF-8"?>
<svg id="_레이어_2" data-name="레이어 2" xmlns="http://www.w3.org/2000/svg" viewBox="0 0 81.22 62.08">
  <defs>
    <style>
      .cls-1 {
        fill: #fff;
        stroke: #61bbff;
        stroke-miterlimit: 10;
        stroke-width: 2px;
      }
    </style>
  </defs>
  <g id="_레이어_1-2" data-name="레이어 1">
    <path class="cls-1" d="M9.01,34.41l2.67,6-1.34,4.67,6,1.34,6,4,8,6.67h6.67s6-2,8-2,2.67,2.67,2.67,2.67l4,3.33h8.67l6-6,7.33-5.33s2-4.67,2-6.67.66-6,.66-6l3.33-4.67-3.33-1.34h-6l-4-2.67.66-2.67,2-5.33v-5.33l-.66-4.67s-.66-3.33-2-5.33c-1.34-2-4.67-2.67-4.67-2.67l-10.67-1.34-2.67,4.67-6,4.67-7.33-2-3.33,6.67-4,7.33-10-.66-7.33-2-6.81,1.86,1.48,1.48-4,7.33v.04l3.33.63,4.67,3.34h0Z"/>
  </g>
</svg>