<?xml version="1.0" encoding="UTF-8"?>
<svg id="_레이어_2" data-name="레이어 2" xmlns="http://www.w3.org/2000/svg" viewBox="0 0 97.17 100.08">
  <defs>
    <style>
      .cls-1 {
        fill: #fff;
        stroke: #61bbff;
        stroke-miterlimit: 10;
        stroke-width: 2px;
      }
    </style>
  </defs>
  <g id="_레이어_1-2" data-name="레이어 1">
    <path class="cls-1" d="M84.51,18.27l-11.33-1.34-4.67,3.34-6.67,1.33s-.66-.66-2-2.67c-1.34-2-4.67-7.33-4.67-7.33l-2.67-5.33s-1.33.66-7.33-1.34l-5.99-2-5.33-1.34s-1.34-1.34-3.33,0c-2,1.34-6,4-6,4,0,0-2.67.66-4.67,4.67-2,4-2.67,8-2.67,8l-5.33.66-4,5.33s2,8,0,8.67c-2,.66-6,2.67-6,2.67,0,0-1.34,5.33-.66,7.33.66,2,9.33,7.33,9.33,7.33l6,.66,4,5.33s5.33,2,6,4c.67,2,2,4,4.67,6.67,2.67,2.67,4,2,5.33,4s4.67,4,4.67,4c0,0,2,3.33,2,5.33,0,.45.1,1.3.26,2.34l3.07-.34,7.33,1.34,2.67,3.34,2,8.67s1.33,1.46,2.81,3.25l5.2-2.36,4.45-7.11.89-5.33.89-7.11,2.67-7.11,5.33-6.22h3.56l7.11-8,1.77-13.34,1.78-14.22v-3.56l.72-1.51-3.83-.72-7.33-4h-.03Z"/>
  </g>
</svg>